<svg width="830" height="88" viewBox="0 0 830 88" fill="none" xmlns="http://www.w3.org/2000/svg">
<rect width="830" height="88" fill="#236E4A"/>
<path d="M376.688 57V36.52H370.352V33.16H386.672V36.52H380.432V57H376.688ZM392.421 57.384C391.248 57.384 390.213 57.1813 389.317 56.776C388.442 56.3493 387.76 55.7733 387.269 55.048C386.778 54.3013 386.533 53.4267 386.533 52.424C386.533 51.4853 386.736 50.6427 387.141 49.896C387.568 49.1493 388.218 48.52 389.093 48.008C389.968 47.496 391.066 47.1333 392.389 46.92L398.405 45.928V48.776L393.093 49.704C392.133 49.8747 391.429 50.184 390.981 50.632C390.533 51.0587 390.309 51.6133 390.309 52.296C390.309 52.9573 390.554 53.5013 391.045 53.928C391.557 54.3333 392.208 54.536 392.997 54.536C393.978 54.536 394.832 54.3227 395.557 53.896C396.304 53.4693 396.88 52.904 397.285 52.2C397.69 51.4747 397.893 50.6747 397.893 49.8V45.352C397.893 44.4987 397.573 43.8053 396.933 43.272C396.314 42.7173 395.482 42.44 394.437 42.44C393.477 42.44 392.634 42.696 391.909 43.208C391.205 43.6987 390.682 44.3387 390.341 45.128L387.333 43.624C387.653 42.7707 388.176 42.024 388.901 41.384C389.626 40.7227 390.469 40.2107 391.429 39.848C392.41 39.4853 393.445 39.304 394.533 39.304C395.898 39.304 397.104 39.56 398.149 40.072C399.216 40.584 400.037 41.2987 400.613 42.216C401.21 43.112 401.509 44.1573 401.509 45.352V57H398.053V53.864L398.789 53.96C398.384 54.664 397.861 55.272 397.221 55.784C396.602 56.296 395.888 56.6907 395.077 56.968C394.288 57.2453 393.402 57.384 392.421 57.384ZM405.737 57V39.688H409.193V43.08L408.777 42.632C409.204 41.544 409.886 40.7227 410.825 40.168C411.764 39.592 412.852 39.304 414.089 39.304C415.369 39.304 416.5 39.5813 417.481 40.136C418.462 40.6907 419.23 41.4587 419.785 42.44C420.34 43.4213 420.617 44.552 420.617 45.832V57H417.033V46.792C417.033 45.9173 416.873 45.1813 416.553 44.584C416.233 43.9653 415.774 43.496 415.177 43.176C414.601 42.8347 413.94 42.664 413.193 42.664C412.446 42.664 411.774 42.8347 411.177 43.176C410.601 43.496 410.153 43.9653 409.833 44.584C409.513 45.2027 409.353 45.9387 409.353 46.792V57H405.737ZM431.975 57.192C430.162 57.192 428.754 56.68 427.751 55.656C426.748 54.632 426.247 53.192 426.247 51.336V42.952H423.207V39.688H423.687C424.498 39.688 425.127 39.4533 425.575 38.984C426.023 38.5147 426.247 37.8747 426.247 37.064V35.72H429.863V39.688H433.799V42.952H429.863V51.176C429.863 51.7733 429.959 52.2853 430.151 52.712C430.343 53.1173 430.652 53.4373 431.079 53.672C431.506 53.8853 432.06 53.992 432.743 53.992C432.914 53.992 433.106 53.9813 433.319 53.96C433.532 53.9387 433.735 53.9173 433.927 53.896V57C433.628 57.0427 433.298 57.0853 432.935 57.128C432.572 57.1707 432.252 57.192 431.975 57.192ZM442.484 57.384C441.31 57.384 440.276 57.1813 439.38 56.776C438.505 56.3493 437.822 55.7733 437.332 55.048C436.841 54.3013 436.596 53.4267 436.596 52.424C436.596 51.4853 436.798 50.6427 437.204 49.896C437.63 49.1493 438.281 48.52 439.156 48.008C440.03 47.496 441.129 47.1333 442.452 46.92L448.468 45.928V48.776L443.156 49.704C442.196 49.8747 441.492 50.184 441.044 50.632C440.596 51.0587 440.372 51.6133 440.372 52.296C440.372 52.9573 440.617 53.5013 441.108 53.928C441.62 54.3333 442.27 54.536 443.06 54.536C444.041 54.536 444.894 54.3227 445.62 53.896C446.366 53.4693 446.942 52.904 447.348 52.2C447.753 51.4747 447.956 50.6747 447.956 49.8V45.352C447.956 44.4987 447.636 43.8053 446.996 43.272C446.377 42.7173 445.545 42.44 444.5 42.44C443.54 42.44 442.697 42.696 441.972 43.208C441.268 43.6987 440.745 44.3387 440.404 45.128L437.396 43.624C437.716 42.7707 438.238 42.024 438.964 41.384C439.689 40.7227 440.532 40.2107 441.492 39.848C442.473 39.4853 443.508 39.304 444.595 39.304C445.961 39.304 447.166 39.56 448.212 40.072C449.278 40.584 450.1 41.2987 450.676 42.216C451.273 43.112 451.572 44.1573 451.572 45.352V57H448.116V53.864L448.852 53.96C448.446 54.664 447.924 55.272 447.284 55.784C446.665 56.296 445.95 56.6907 445.14 56.968C444.35 57.2453 443.465 57.384 442.484 57.384ZM455.799 57V39.688H459.256V43.08L458.84 42.632C459.266 41.544 459.949 40.7227 460.888 40.168C461.826 39.592 462.914 39.304 464.152 39.304C465.432 39.304 466.562 39.5813 467.544 40.136C468.525 40.6907 469.293 41.4587 469.847 42.44C470.402 43.4213 470.68 44.552 470.68 45.832V57H467.096V46.792C467.096 45.9173 466.936 45.1813 466.616 44.584C466.296 43.9653 465.837 43.496 465.24 43.176C464.664 42.8347 464.002 42.664 463.256 42.664C462.509 42.664 461.837 42.8347 461.24 43.176C460.664 43.496 460.216 43.9653 459.896 44.584C459.576 45.2027 459.416 45.9387 459.416 46.792V57H455.799Z" fill="white"/>
<g clip-path="url(#clip0_431_2)">
<path d="M354.567 46.3568L354.282 45.8643L353.112 43.8608L353.834 42.624L354.567 41.3648C355.298 40.1239 355.762 38.7437 355.927 37.3131C356.055 36.2362 356.007 35.1458 355.787 34.084C355.432 32.4471 354.7 30.9157 353.649 29.6119C352.598 28.308 351.256 27.2676 349.732 26.5736C348.269 25.9134 346.681 25.5756 345.076 25.5831H342.418L341.119 23.3445C340.223 21.808 338.957 20.5193 337.437 19.595C336.503 19.0296 335.49 18.6071 334.432 18.3414C333.516 18.1132 332.577 17.9986 331.633 18H331.505C330.435 18.0085 329.373 18.1687 328.348 18.4757C325.634 19.2721 323.347 21.114 321.991 23.5964L320.872 25.5999H318.924C317.122 25.5921 315.344 26.0182 313.742 26.8423C311.956 27.7791 310.468 29.196 309.444 30.9332C308.992 31.6906 308.64 32.5032 308.397 33.3508C308.09 34.3965 307.956 35.4854 308 36.5743C308.067 38.1804 308.509 39.7484 309.293 41.1522L309.729 41.9413L310.798 43.8608L310.076 45.176L309.304 46.575C308.631 47.7848 308.207 49.1166 308.056 50.4925C307.943 51.5713 308.001 52.6612 308.229 53.7216C308.467 54.8112 308.877 55.856 309.444 56.8164C309.877 57.5521 310.393 58.2356 310.983 58.8535C311.75 59.6334 312.631 60.292 313.596 60.8066C315.24 61.6917 317.079 62.1515 318.946 62.1441H320.928L322.047 64.142C322.925 65.7423 324.199 67.091 325.746 68.0595C327.482 69.1405 329.482 69.7215 331.527 69.7384H331.673C332.95 69.7353 334.218 69.5158 335.422 69.0892C336.445 68.7347 337.408 68.2251 338.276 67.5782C339.439 66.7106 340.414 65.6158 341.142 64.3603L342.44 62.1217H345.098C346.847 62.1276 348.573 61.7212 350.135 60.9353C351.105 60.4589 351.994 59.8339 352.771 59.0829C353.497 58.3822 354.119 57.5813 354.618 56.7045C355.028 55.9992 355.353 55.2478 355.586 54.4659C355.896 53.4208 356.034 52.332 355.994 51.2424C355.938 49.5196 355.447 47.839 354.567 46.3568ZM345.053 28.8122C346.088 28.8012 347.114 28.9912 348.076 29.3718C349.088 29.7798 350.001 30.4022 350.751 31.1962C351.149 31.6284 351.498 32.1032 351.791 32.6121C352.046 33.0572 352.252 33.5281 352.407 34.0168C352.745 35.0602 352.829 36.169 352.653 37.2515C352.509 38.124 352.206 38.9625 351.758 39.7251L351.198 40.6485L349.178 37.1955L348.21 35.5446L347.275 33.9385L345.496 33.9273L343.615 33.8937L337.621 33.8041L333.743 33.7426L329.266 33.6698L331.438 29.9203L332.087 28.801L345.053 28.8122ZM318.924 58.915C317.626 58.9212 316.347 58.61 315.197 58.0084C314.219 57.4914 313.367 56.7654 312.701 55.8818C312.533 55.6523 312.371 55.4173 312.225 55.1711C311.965 54.727 311.75 54.2583 311.582 53.772C311.229 52.7322 311.131 51.6228 311.296 50.5373C311.429 49.6946 311.71 48.882 312.124 48.1364L312.645 47.1962L314.52 50.5876L315.124 51.7069L316.322 53.8615H317.598H318.157L320.015 53.8895L326.294 53.9846L330.1 54.0462L333.76 54.1022L332.008 57.1746L331.007 58.9038L318.924 58.915ZM340.571 58.915L338.685 62.1441L338.338 62.7373C337.832 63.5986 337.161 64.3512 336.363 64.9515C335.564 65.5519 334.655 65.9881 333.687 66.2351C332.984 66.4168 332.259 66.5052 331.533 66.4981C331.158 66.4914 330.784 66.4596 330.413 66.403C329.326 66.2486 328.283 65.8672 327.352 65.2837C326.312 64.6119 325.454 63.6928 324.856 62.6086L324.61 62.1665H332.87L333.799 60.5324L333.906 60.3533L334.739 58.9206L337.482 54.1805L339.34 50.9682L335.646 50.9178L328.147 50.8003L324.341 50.7387L319.433 50.666H318.219L316.999 48.4274L315.275 45.2599L314.509 43.8608L313.585 42.1819L313.479 41.986L312.645 40.531L312.124 39.5908C311.612 38.678 311.308 37.6632 311.235 36.6191C311.159 35.517 311.351 34.413 311.794 33.4012C311.922 33.1099 312.066 32.8259 312.225 32.5506C312.413 32.227 312.629 31.92 312.869 31.6328C313.558 30.78 314.428 30.0901 315.415 29.6125C316.508 29.0799 317.708 28.8061 318.924 28.8122H319.12L317.116 32.4386L316.557 33.4796L315.331 35.7181L315.924 36.7142L316.294 37.3187L317.251 38.9136L319.159 42.0644L319.937 43.3627L321.118 45.3271H322.511L324.918 45.3606L338.702 45.5789L340.94 45.6125L341.701 46.8772L344.186 51.0018L344.695 51.8524L343.291 54.2644L340.571 58.915ZM352.166 54.3764C352.061 54.6156 351.944 54.8491 351.814 55.0759C351.588 55.4711 351.328 55.8456 351.036 56.1952C350.328 57.0301 349.448 57.7021 348.456 58.1651C347.403 58.6486 346.257 58.8987 345.098 58.8982H344.309L346.548 55.0311L346.973 54.3036L348.406 51.858L347.941 51.0913L347.454 50.2798L346.509 48.7017L344.701 45.702L343.526 43.7433L342.759 42.4561L340.554 42.4225H338.959L324.375 42.1931H322.959L321.789 40.24L319.719 36.7982L319.042 35.6789L320.206 33.5803L322.819 28.857L323.709 27.2396L324.599 25.6279L324.845 25.1857C325.39 24.1932 326.156 23.3392 327.084 22.6898C327.974 22.036 328.996 21.5817 330.078 21.3578C330.557 21.2671 331.044 21.2184 331.533 21.2123H331.633C331.996 21.2119 332.359 21.2343 332.719 21.2795C333.82 21.4238 334.876 21.8057 335.814 22.3988C336.855 23.0425 337.722 23.9323 338.338 24.9899L338.679 25.5831H330.24L329.552 26.7639L329.305 27.1948L328.371 28.8122L325.573 33.6195L323.715 36.815L327.414 36.8765L335.696 37.0053L339.502 37.0612L343.604 37.1284H345.434L346.38 38.7457L348.585 42.5177L349.357 43.8328L350.292 45.4278L350.493 45.7748L351.226 47.0283L351.786 47.9517C352.357 48.9146 352.69 50.0002 352.756 51.1179C352.822 52.2355 352.62 53.3528 352.166 54.3764Z" fill="white"/>
</g>
<defs>
<clipPath id="clip0_431_2">
<rect width="48" height="51.7216" fill="white" transform="translate(308 18)"/>
</clipPath>
</defs>
</svg>
